<?xml version="1.0" encoding="UTF-8" standalone="no"?>

<svg
	version="1.1"
	width="330"
	height="330"
	viewBox="0 0 330 330"
	xmlns="http://www.w3.org/2000/svg"
>
	<g>
		<g>
			<rect height="60%" width="100%" y="20%" rx="15%" fill="#3b77a8"/>
			<path
				style="fill: #ececec;"
				d="m 150.39547,200.91891 c -1.7075,-0.49539 -4.3479,-2.1423 -5.86756,-3.65981 -1.51966,-1.5175 -3.16012,-3.80089 -3.64547,-5.0742 C 140.3971,190.9116 140,187.58971 140,184.80293 c 0,-3.44667 0.69071,-6.18446 2.16007,-8.56193 1.36208,-2.20389 3.85573,-4.24652 6.75,-5.52913 3.20136,-1.4187 7.53956,-2.17703 14.33993,-2.50666 l 9.75,-0.4726 v -3.36631 c 0,-2.03297 -0.79216,-4.15846 -2,-5.3663 -1.34591,-1.34591 -3.33333,-2 -6.07692,-2 -3.19658,0 -4.72472,0.6478 -7.07693,3 -2.72091,2.72092 -3.60761,3 -9.53148,3 h -6.53149 l 0.66928,-2.75 c 0.3681,-1.5125 1.73719,-4.38298 3.04242,-6.37885 1.3815,-2.11248 4.28709,-4.55537 6.95343,-5.84612 2.51915,-1.2195 7.16134,-2.44906 10.31598,-2.73235 3.15464,-0.2833 7.58024,-0.016 9.83467,0.59399 2.25443,0.60999 5.62943,2.12617 7.5,3.36928 1.87057,1.2431 4.41354,4.26441 5.65104,6.71401 2.11305,4.18272 2.25,5.68872 2.25,24.74193 V 201 h -7 -7 l -0.004,-4.75 -0.004,-4.75 -2.01692,3.30814 c -1.16452,1.91004 -3.80435,4.11954 -6.24626,5.22804 -2.32614,1.05594 -6.02934,1.88919 -8.22934,1.85167 -2.2,-0.0375 -5.39704,-0.47355 -7.10453,-0.96894 z m 18.53301,-11.38192 c 1.55604,-0.80466 3.10869,-2.19147 3.45034,-3.08179 C 172.72047,185.56487 173,182.84823 173,180.41821 V 176 h -5.35078 c -2.94292,0 -6.80006,0.50522 -8.5714,1.12272 -1.86677,0.65076 -3.61099,2.14943 -4.14923,3.5651 -0.51072,1.34331 -0.92859,3.10854 -0.92859,3.92273 0,0.8142 1.10455,2.5849 2.45455,3.9349 1.69573,1.69574 3.56595,2.45455 6.04966,2.45455 1.97731,0 4.86823,-0.65836 6.42427,-1.46301 z M 86.670578,174.25 C 81.886361,159.5375 77.978301,147.1625 77.986,146.75 77.9937,146.3375 81.283878,146 85.297507,146 h 7.297507 l 5.157116,17.75 c 2.83641,9.7625 5.45054,18.98439 5.80917,20.49309 0.35862,1.5087 1.01489,2.51884 1.45836,2.24476 0.44347,-0.27408 1.0956,-2.18347 1.44917,-4.24309 0.35358,-2.05962 2.78072,-10.94476 5.39366,-19.74476 l 4.75081,-16 7.19335,-0.29381 c 4.48521,-0.1832 7.19335,0.0963 7.19335,0.74233 0,0.56988 -2.95432,10.15209 -6.56516,21.29381 -3.61084,11.14172 -7.47253,23.07017 -8.58153,26.50767 l -2.01637,6.25 h -9.23389 -9.233894 z M 203,173.5 V 146 h 6.5 6.5 v 4.5 c 0,2.475 0.45,4.5 1,4.5 0.55,0 1,-0.59081 1,-1.31291 0,-0.7221 1.2375,-2.49347 2.75,-3.93638 1.5125,-1.44291 4.01679,-3.1021 5.5651,-3.68709 1.5483,-0.58499 4.4733,-1.05374 6.5,-1.04166 2.02669,0.0121 5.4849,0.84853 7.6849,1.85877 2.2,1.01025 4.77034,2.70433 5.71186,3.76464 0.94153,1.0603 2.40403,3.5844 3.25,5.60911 0.84598,2.02471 1.53814,5.94574 1.53814,8.7134 V 170 h -7.5 c -6.87285,0 -7.5,-0.16993 -7.5,-2.03212 0,-1.11766 -0.63145,-3.54339 -1.40323,-5.39051 -1.00303,-2.40059 -2.40454,-3.68886 -4.91424,-4.51713 -2.82119,-0.93107 -4.20197,-0.87004 -7.02772,0.31063 -2.7435,1.14631 -3.75051,2.31142 -4.58017,5.29925 -0.58492,2.10643 -1.066,11.36738 -1.06906,20.57988 L 217,201 h -7 -7 z"
			/>
			<path
				style="fill: #fbde58;"
				d="M 78.25,223.88495 C 75.171851,221.91365 75,221.48426 75,215.76429 v -6.0393 l 3.084255,3.88751 c 1.696341,2.13812 3.682667,4.22572 4.414058,4.63909 0.731391,0.41338 2.039322,0.47933 2.906512,0.14656 0.867191,-0.33277 3.204752,-2.82288 5.19458,-5.53357 1.989828,-2.71068 5.073958,-6.03913 6.853623,-7.39655 C 99.232692,204.11061 101.90615,203 103.39405,203 c 1.4879,0 4.00647,0.67288 5.59682,1.49528 1.59036,0.82241 4.99365,4.08491 7.56286,7.25 2.56922,3.1651 5.257,6.09294 5.97284,6.50631 0.71585,0.41338 2.01106,0.47933 2.87826,0.14656 0.86719,-0.33277 3.20475,-2.82288 5.19457,-5.53357 1.98983,-2.71068 5.07396,-6.03913 6.85363,-7.39655 1.77966,-1.35742 4.45312,-2.46803 5.94102,-2.46803 1.4879,0 4.00647,0.67288 5.59682,1.49528 1.59036,0.82241 4.99365,4.08491 7.56286,7.25 2.56922,3.1651 5.257,6.09294 5.97284,6.50631 0.71585,0.41338 2.01106,0.47933 2.87826,0.14656 0.86719,-0.33277 3.20475,-2.82288 5.19457,-5.53357 1.98983,-2.71068 5.07396,-6.03913 6.85363,-7.39655 1.77966,-1.35742 4.45312,-2.46803 5.94102,-2.46803 1.4879,0 4.00647,0.67288 5.59682,1.49528 1.59036,0.82241 4.99365,4.08491 7.56286,7.25 2.56922,3.1651 5.257,6.09294 5.97284,6.50631 0.71585,0.41338 2.01106,0.47933 2.87826,0.14656 0.86719,-0.33277 3.20475,-2.82288 5.19457,-5.53357 1.98983,-2.71068 5.07396,-6.03913 6.85363,-7.39655 1.77966,-1.35742 4.45312,-2.46803 5.94102,-2.46803 1.4879,0 4.00647,0.67288 5.59682,1.49528 1.59036,0.82241 4.99365,4.08491 7.56286,7.25 2.56922,3.1651 5.28971,6.11124 6.04554,6.54699 0.75583,0.43576 2.20035,0.35015 3.21006,-0.19023 1.00971,-0.54037 3.15317,-2.88882 4.76325,-5.21877 l 2.92742,-4.23626 0.31449,5.9265 c 0.29902,5.63499 0.15332,6.06175 -2.96222,8.67649 -2.00649,1.68395 -4.45432,2.74745 -6.3145,2.74341 -1.67077,-0.004 -4.32403,-0.8546 -5.89612,-1.89107 -1.5721,-1.03646 -5.3971,-4.67118 -8.5,-8.07714 -4.13293,-4.5366 -6.0948,-6.01365 -7.33615,-5.52325 -0.93198,0.36819 -3.58845,3.12435 -5.90328,6.12479 -2.31483,3.00045 -5.44677,6.33689 -6.95987,7.41431 -1.5131,1.07742 -4.03162,1.95598 -5.59672,1.95236 -1.5651,-0.004 -4.13189,-0.8546 -5.70398,-1.89107 -1.5721,-1.03646 -5.3971,-4.67118 -8.5,-8.07714 -4.13293,-4.5366 -6.0948,-6.01365 -7.33615,-5.52325 -0.93198,0.36819 -3.58845,3.12435 -5.90328,6.12479 -2.31483,3.00045 -5.44677,6.33689 -6.95987,7.41431 -1.5131,1.07742 -4.03162,1.95598 -5.59672,1.95236 -1.5651,-0.004 -4.13189,-0.8546 -5.70398,-1.89107 -1.5721,-1.03646 -5.3971,-4.67118 -8.5,-8.07714 -4.13293,-4.5366 -6.0948,-6.01365 -7.33615,-5.52325 -0.93198,0.36819 -3.58845,3.12435 -5.90328,6.12479 -2.31483,3.00045 -5.44677,6.33689 -6.95987,7.41431 -1.5131,1.07742 -4.03162,1.95598 -5.59672,1.95236 -1.5651,-0.004 -4.13189,-0.8546 -5.70398,-1.89107 -1.5721,-1.03646 -5.3971,-4.67118 -8.5,-8.07714 -4.13293,-4.5366 -6.0948,-6.01365 -7.33615,-5.52325 -0.93198,0.36819 -3.588453,3.12435 -5.903281,6.12479 -2.314829,3.00045 -5.44677,6.33689 -6.959869,7.41431 -1.5131,1.07742 -4.031624,1.95137 -5.59672,1.9421 -1.565097,-0.009 -4.30813,-0.95345 -6.09563,-2.0982 z M 57.317612,211.06226 C 54.467298,210.03618 49.6419,207.54169 46.594505,205.51895 43.54711,203.4962 39.531534,199.73945 37.671003,197.17061 35.810472,194.60178 33.435869,190.25 32.394109,187.5 30.790634,183.26721 30.5,179.73806 30.5,164.5 c 0,-17.43344 0.08436,-18.17998 2.680056,-23.71807 1.474031,-3.14493 4.742381,-7.92285 7.263001,-10.6176 2.52062,-2.69475 7.297501,-6.34638 10.615291,-8.11475 3.31779,-1.76836 7.361939,-3.59652 8.986999,-4.06259 L 63,117.13961 v 7.18605 7.18604 l -5.04447,2.3142 c -3.205101,1.47037 -6.123225,3.80337 -8.002956,6.39827 -1.627167,2.24624 -3.446029,5.89466 -4.041914,8.10761 -0.637094,2.36599 -0.939309,10.23284 -0.733594,19.09589 0.268928,11.5865 0.729979,15.77096 1.993533,18.09311 0.904034,1.66144 2.922981,4.31505 4.486549,5.89692 1.563569,1.58188 4.755352,3.73108 7.092852,4.77601 l 4.25,1.89988 v 7.4532 c 0,4.09927 -0.1125,7.43698 -0.25,7.41713 -0.1375,-0.0198 -2.582075,-0.87559 -5.432388,-1.90166 z M 266,205.47699 v -7.3834 l 4.25,-1.89988 c 2.3375,-1.04493 5.52928,-3.19413 7.09285,-4.77601 1.56357,-1.58187 3.58252,-4.23548 4.48655,-5.89692 1.26356,-2.32215 1.72461,-6.50661 1.99353,-18.09311 0.20572,-8.86305 -0.0965,-16.7299 -0.73359,-19.09589 -0.59589,-2.21295 -2.41475,-5.86137 -4.04191,-8.10761 -1.87974,-2.5949 -4.79786,-4.9279 -8.00296,-6.39827 L 266,131.5117 v -7.18604 -7.18605 l 2.95465,0.84738 c 1.62506,0.46607 5.66921,2.29423 8.987,4.06259 3.31779,1.76837 8.09467,5.42 10.61529,8.11475 2.52062,2.69475 5.77763,7.47267 7.2378,10.6176 2.42792,5.22931 2.6873,7.01295 3.03458,20.86707 0.21873,8.72626 -0.0822,17.30267 -0.70968,20.22874 -0.59918,2.79386 -2.07072,7.16739 -3.2701,9.71895 -1.19937,2.55157 -4.2692,6.72363 -6.82184,9.27126 -2.55264,2.54763 -7.10165,5.87186 -10.10892,7.38718 -3.00728,1.51532 -6.91925,3.17141 -8.69328,3.6802 L 266,212.86039 Z"
			/>
		</g>
	</g>
</svg>
